<svg width="132" height="80" viewBox="0 0 132 80" fill="none" xmlns="http://www.w3.org/2000/svg">
<g clip-path="url(#clip0_38_5037)">
<rect width="132" height="80" rx="4" fill="#F2DE61"/>
<path d="M62 51C62 51.5 62.4 52 63 52H67C67.6 52 68 51.5 68 51V50H62V51ZM65 32C61.1 32 58 35.1 58 39C58 41.4 59.2 43.5 61 44.7V47C61 47.5 61.4 48 62 48H68C68.6 48 69 47.5 69 47V44.7C70.8 43.4 72 41.3 72 39C72 35.1 68.9 32 65 32Z" fill="white"/>
<path d="M94 64C94 64.55 94.45 65 95 65H99C99.55 65 100 64.55 100 64V63H94V64ZM97 45C93.14 45 90 48.14 90 52C90 54.38 91.19 56.47 93 57.74V60C93 60.55 93.45 61 94 61H100C100.55 61 101 60.55 101 60V57.74C102.81 56.47 104 54.38 104 52C104 48.14 100.86 45 97 45ZM99.85 56.1L99 56.7V59H95V56.7L94.15 56.1C92.8 55.16 92 53.63 92 52C92 49.24 94.24 47 97 47C99.76 47 102 49.24 102 52C102 53.63 101.2 55.16 99.85 56.1Z" fill="white" fill-opacity="0.4"/>
<path d="M32 33C32 33.55 32.45 34 33 34H37C37.55 34 38 33.55 38 33V32H32V33ZM35 14C31.14 14 28 17.14 28 21C28 23.38 29.19 25.47 31 26.74V29C31 29.55 31.45 30 32 30H38C38.55 30 39 29.55 39 29V26.74C40.81 25.47 42 23.38 42 21C42 17.14 38.86 14 35 14ZM37.85 25.1L37 25.7V28H33V25.7L32.15 25.1C30.8 24.16 30 22.63 30 21C30 18.24 32.24 16 35 16C37.76 16 40 18.24 40 21C40 22.63 39.2 24.16 37.85 25.1Z" fill="white" fill-opacity="0.4"/>
<path d="M-4 49C-4 49.55 -3.55 50 -3 50H1C1.55 50 2 49.55 2 49V48H-4V49ZM-1 30C-4.86 30 -8 33.14 -8 37C-8 39.38 -6.81 41.47 -5 42.74V45C-5 45.55 -4.55 46 -4 46H2C2.55 46 3 45.55 3 45V42.74C4.81 41.47 6 39.38 6 37C6 33.14 2.86 30 -1 30ZM1.85 41.1L1 41.7V44H-3V41.7L-3.85 41.1C-5.2 40.16 -6 38.63 -6 37C-6 34.24 -3.76 32 -1 32C1.76 32 4 34.24 4 37C4 38.63 3.2 40.16 1.85 41.1Z" fill="white" fill-opacity="0.4"/>
<path d="M130 49C130 49.55 130.45 50 131 50H135C135.55 50 136 49.55 136 49V48H130V49ZM133 30C129.14 30 126 33.14 126 37C126 39.38 127.19 41.47 129 42.74V45C129 45.55 129.45 46 130 46H136C136.55 46 137 45.55 137 45V42.74C138.81 41.47 140 39.38 140 37C140 33.14 136.86 30 133 30ZM135.85 41.1L135 41.7V44H131V41.7L130.15 41.1C128.8 40.16 128 38.63 128 37C128 34.24 130.24 32 133 32C135.76 32 138 34.24 138 37C138 38.63 137.2 40.16 135.85 41.1Z" fill="white" fill-opacity="0.4"/>
<path d="M120 17C120 17.55 120.45 18 121 18H125C125.55 18 126 17.55 126 17V16H120V17ZM123 -2C119.14 -2 116 1.14 116 5C116 7.38 117.19 9.47 119 10.74V13C119 13.55 119.45 14 120 14H126C126.55 14 127 13.55 127 13V10.74C128.81 9.47 130 7.38 130 5C130 1.14 126.86 -2 123 -2ZM125.85 9.1L125 9.7V12H121V9.7L120.15 9.1C118.8 8.16 118 6.63 118 5C118 2.24 120.24 0 123 0C125.76 0 128 2.24 128 5C128 6.63 127.2 8.16 125.85 9.1Z" fill="white" fill-opacity="0.4"/>
<path d="M6 17C6 17.55 6.45 18 7 18H11C11.55 18 12 17.55 12 17V16H6V17ZM9 -2C5.14 -2 2 1.14 2 5C2 7.38 3.19 9.47 5 10.74V13C5 13.55 5.45 14 6 14H12C12.55 14 13 13.55 13 13V10.74C14.81 9.47 16 7.38 16 5C16 1.14 12.86 -2 9 -2ZM11.85 9.1L11 9.7V12H7V9.7L6.15 9.1C4.8 8.16 4 6.63 4 5C4 2.24 6.24 0 9 0C11.76 0 14 2.24 14 5C14 6.63 13.2 8.16 11.85 9.1Z" fill="white" fill-opacity="0.4"/>
<path d="M6 82C6 82.55 6.45 83 7 83H11C11.55 83 12 82.55 12 82V81H6V82ZM9 63C5.14 63 2 66.14 2 70C2 72.38 3.19 74.47 5 75.74V78C5 78.55 5.45 79 6 79H12C12.55 79 13 78.55 13 78V75.74C14.81 74.47 16 72.38 16 70C16 66.14 12.86 63 9 63ZM11.85 74.1L11 74.7V77H7V74.7L6.15 74.1C4.8 73.16 4 71.63 4 70C4 67.24 6.24 65 9 65C11.76 65 14 67.24 14 70C14 71.63 13.2 73.16 11.85 74.1Z" fill="white" fill-opacity="0.4"/>
<path d="M120 84C120 84.55 120.45 85 121 85H125C125.55 85 126 84.55 126 84V83H120V84ZM123 65C119.14 65 116 68.14 116 72C116 74.38 117.19 76.47 119 77.74V80C119 80.55 119.45 81 120 81H126C126.55 81 127 80.55 127 80V77.74C128.81 76.47 130 74.38 130 72C130 68.14 126.86 65 123 65ZM125.85 76.1L125 76.7V79H121V76.7L120.15 76.1C118.8 75.16 118 73.63 118 72C118 69.24 120.24 67 123 67C125.76 67 128 69.24 128 72C128 73.63 127.2 75.16 125.85 76.1Z" fill="white" fill-opacity="0.4"/>
<path d="M94 33C94 33.55 94.45 34 95 34H99C99.55 34 100 33.55 100 33V32H94V33ZM97 14C93.14 14 90 17.14 90 21C90 23.38 91.19 25.47 93 26.74V29C93 29.55 93.45 30 94 30H100C100.55 30 101 29.55 101 29V26.74C102.81 25.47 104 23.38 104 21C104 17.14 100.86 14 97 14ZM99.85 25.1L99 25.7V28H95V25.7L94.15 25.1C92.8 24.16 92 22.63 92 21C92 18.24 94.24 16 97 16C99.76 16 102 18.24 102 21C102 22.63 101.2 24.16 99.85 25.1Z" fill="white" fill-opacity="0.4"/>
<path d="M62 17C62 17.55 62.45 18 63 18H67C67.55 18 68 17.55 68 17V16H62V17ZM65 -2C61.14 -2 58 1.14 58 5C58 7.38 59.19 9.47 61 10.74V13C61 13.55 61.45 14 62 14H68C68.55 14 69 13.55 69 13V10.74C70.81 9.47 72 7.38 72 5C72 1.14 68.86 -2 65 -2ZM67.85 9.1L67 9.7V12H63V9.7L62.15 9.1C60.8 8.16 60 6.63 60 5C60 2.24 62.24 0 65 0C67.76 0 70 2.24 70 5C70 6.63 69.2 8.16 67.85 9.1Z" fill="white" fill-opacity="0.4"/>
<path d="M62 82C62 82.55 62.45 83 63 83H67C67.55 83 68 82.55 68 82V81H62V82ZM65 63C61.14 63 58 66.14 58 70C58 72.38 59.19 74.47 61 75.74V78C61 78.55 61.45 79 62 79H68C68.55 79 69 78.55 69 78V75.74C70.81 74.47 72 72.38 72 70C72 66.14 68.86 63 65 63ZM67.85 74.1L67 74.7V77H63V74.7L62.15 74.1C60.8 73.16 60 71.63 60 70C60 67.24 62.24 65 65 65C67.76 65 70 67.24 70 70C70 71.63 69.2 73.16 67.85 74.1Z" fill="white" fill-opacity="0.4"/>
<path d="M32 64C32 64.55 32.45 65 33 65H37C37.55 65 38 64.55 38 64V63H32V64ZM35 45C31.14 45 28 48.14 28 52C28 54.38 29.19 56.47 31 57.74V60C31 60.55 31.45 61 32 61H38C38.55 61 39 60.55 39 60V57.74C40.81 56.47 42 54.38 42 52C42 48.14 38.86 45 35 45ZM37.85 56.1L37 56.7V59H33V56.7L32.15 56.1C30.8 55.16 30 53.63 30 52C30 49.24 32.24 47 35 47C37.76 47 40 49.24 40 52C40 53.63 39.2 55.16 37.85 56.1Z" fill="white" fill-opacity="0.4"/>
</g>
<defs>
<clipPath id="clip0_38_5037">
<rect width="132" height="80" rx="4" fill="white"/>
</clipPath>
</defs>
</svg>
