<svg width="132" height="80" viewBox="0 0 132 80" fill="none" xmlns="http://www.w3.org/2000/svg">
<g clip-path="url(#clip0_38_5095)">
<rect width="132" height="80" rx="4" fill="#FE9FD8"/>
<path d="M133.437 9.66666H62.4375V18.5417H133.437V9.66666ZM137.875 54.0416V45.1667L133.437 22.9792V18.5417H62.4375V22.9792L58 45.1667V54.0416H62.4375V80.6666H106.812V54.0416H124.562V80.6666H133.437V54.0416H137.875ZM97.9375 71.7916H71.3125V54.0416H97.9375V71.7916Z" fill="white" fill-opacity="0.3"/>
<path d="M21.083 60.4167C22.3663 60.4167 23.4163 59.3667 23.4163 58.0833C23.4163 56.8 22.3663 55.75 21.083 55.75C19.7997 55.75 18.7497 56.8 18.7497 58.0833C18.7497 59.3667 19.7997 60.4167 21.083 60.4167ZM16.708 64.3833L13.4997 80.8333H15.9497L17.9913 71.5L20.4997 73.8333V80.8333H22.833V72.025L20.4413 69.6333L21.1413 66.1333C22.658 68 24.933 69.1667 27.4997 69.1667V66.8333C25.3413 66.8333 23.4747 65.6667 22.4247 63.975L21.3163 62.1083C20.908 61.4083 20.1497 61 19.333 61C19.0413 61 18.7497 61.0583 18.458 61.175L12.333 63.6833V69.1667H14.6663V65.2583L16.708 64.3833Z" fill="white"/>
<path d="M36 63V70H39.75V84H41.25V70H45V63H36ZM41.01 69V67.25H37.5V65.75H41.01V64L43.5 66.5L41.01 69Z" fill="white" fill-opacity="0.6"/>
<path d="M107 32C108.66 32 109.99 30.66 109.99 29C109.99 27.34 108.66 26 107 26C105.34 26 104 27.34 104 29C104 30.66 105.34 32 107 32ZM99 32C100.66 32 101.99 30.66 101.99 29C101.99 27.34 100.66 26 99 26C97.34 26 96 27.34 96 29C96 30.66 97.34 32 99 32ZM99 34C96.67 34 92 35.17 92 37.5V40H106V37.5C106 35.17 101.33 34 99 34ZM107 34C106.71 34 106.38 34.02 106.03 34.05C107.19 34.89 108 36.02 108 37.5V40H114V37.5C114 35.17 109.33 34 107 34Z" fill="#FE9FD8"/>
</g>
<defs>
<clipPath id="clip0_38_5095">
<rect width="132" height="80" rx="4" fill="white"/>
</clipPath>
</defs>
</svg>
