<svg width="132" height="80" viewBox="0 0 132 80" fill="none" xmlns="http://www.w3.org/2000/svg">
<rect width="132" height="80" rx="4" fill="#FE9FD8"/>
<path d="M90.6665 21.5H65.9998L59.8332 15.3333H41.3332C37.9415 15.3333 35.1973 18.1083 35.1973 21.5L35.1665 58.5C35.1665 61.8916 37.9415 64.6666 41.3332 64.6666H90.6665C94.0582 64.6666 96.8332 61.8916 96.8332 58.5V27.6666C96.8332 24.275 94.0582 21.5 90.6665 21.5Z" fill="white" fill-opacity="0.4"/>
<path d="M61.2735 50.975L53.7985 43.5L61.2735 36.025L58.9985 33.75L49.2485 43.5L58.9985 53.25L61.2735 50.975ZM69.7235 50.975L77.1985 43.5L69.7235 36.025L71.9985 33.75L81.7485 43.5L71.9985 53.25L69.7235 50.975V50.975Z" fill="#FE9FD8"/>
<path d="M113.658 21.7583L110.399 18.5L113.658 15.2417L112.666 14.25L108.416 18.5L112.666 22.75L113.658 21.7583ZM117.341 21.7583L120.599 18.5L117.341 15.2417L118.333 14.25L122.583 18.5L118.333 22.75L117.341 21.7583V21.7583Z" fill="white" fill-opacity="0.6"/>
<path d="M113.658 42.7583L110.399 39.5L113.658 36.2417L112.666 35.25L108.416 39.5L112.666 43.75L113.658 42.7583ZM117.341 42.7583L120.599 39.5L117.341 36.2417L118.333 35.25L122.583 39.5L118.333 43.75L117.341 42.7583V42.7583Z" fill="white" fill-opacity="0.6"/>
<path d="M113.658 63.7583L110.399 60.5L113.658 57.2417L112.666 56.25L108.416 60.5L112.666 64.75L113.658 63.7583ZM117.341 63.7583L120.599 60.5L117.341 57.2417L118.333 56.25L122.583 60.5L118.333 64.75L117.341 63.7583V63.7583Z" fill="white" fill-opacity="0.6"/>
<path d="M16.6577 21.7583L13.3993 18.5L16.6577 15.2417L15.666 14.25L11.416 18.5L15.666 22.75L16.6577 21.7583ZM20.341 21.7583L23.5994 18.5L20.341 15.2417L21.3327 14.25L25.5827 18.5L21.3327 22.75L20.341 21.7583V21.7583Z" fill="white" fill-opacity="0.6"/>
<path d="M16.6577 42.7583L13.3993 39.5L16.6577 36.2417L15.666 35.25L11.416 39.5L15.666 43.75L16.6577 42.7583ZM20.341 42.7583L23.5994 39.5L20.341 36.2417L21.3327 35.25L25.5827 39.5L21.3327 43.75L20.341 42.7583V42.7583Z" fill="white" fill-opacity="0.6"/>
<path d="M16.6577 63.7583L13.3993 60.5L16.6577 57.2417L15.666 56.25L11.416 60.5L15.666 64.75L16.6577 63.7583ZM20.341 63.7583L23.5994 60.5L20.341 57.2417L21.3327 56.25L25.5827 60.5L21.3327 64.75L20.341 63.7583V63.7583Z" fill="white" fill-opacity="0.6"/>
</svg>
