<svg width="132" height="80" viewBox="0 0 132 80" fill="none" xmlns="http://www.w3.org/2000/svg">
<g clip-path="url(#clip0_38_6202)">
<rect width="132" height="80" rx="4" fill="#5865F2"/>
<path d="M66 93.5C89.46 93.5 108.5 74.46 108.5 51C108.5 27.54 89.46 8.5 66 8.5C42.54 8.5 23.5 27.54 23.5 51C23.5 74.46 42.54 93.5 66 93.5ZM66 17C84.785 17 100 32.215 100 51C100 58.8625 97.3225 66.0875 92.8175 71.825L45.175 24.1825C50.9125 19.6775 58.1375 17 66 17ZM39.1825 30.175L86.825 77.8175C81.0875 82.3225 73.8625 85 66 85C47.215 85 32 69.785 32 51C32 43.1375 34.6775 35.9125 39.1825 30.175Z" fill="white" fill-opacity="0.15"/>
<path d="M73.1882 51.4825C75.0751 51.4825 76.6048 49.9528 76.6048 48.0658C76.6048 46.1789 75.0751 44.6492 73.1882 44.6492C71.3012 44.6492 69.7715 46.1789 69.7715 48.0658C69.7715 49.9528 71.3012 51.4825 73.1882 51.4825Z" fill="white"/>
<path d="M85.9999 64.2952V56.266L77.3728 52.6102C75.7158 51.9098 73.8024 52.5077 72.8458 54.0452L71.1374 56.7785C69.9928 58.7944 67.8745 60.2977 65.312 60.7419L65.4145 60.8444C66.5933 62.0231 68.0112 62.6723 69.617 62.8431C70.9837 62.1256 72.2137 61.1689 73.1874 60.0414L74.2124 65.1664L72.2308 67.0456L70.6249 68.566V69.8644V81.3785H74.0416V71.1285L77.6291 67.7119L80.7041 81.3785H84.2916L80.5674 62.5869L79.5083 57.291L82.5833 58.4869V64.2952H85.9999V64.2952Z" fill="white"/>
<path d="M62.5789 57.8205C62.9547 58.0767 63.3818 58.2305 63.8089 58.3159C64.031 58.3501 64.236 58.3842 64.458 58.3842C64.6801 58.3842 64.9022 58.3671 65.1072 58.3159C65.3293 58.2817 65.5343 58.2134 65.7393 58.128C66.1493 57.9571 66.5422 57.718 66.8668 57.3763C67.7039 56.5392 68.0114 55.3776 67.8064 54.3013C67.6868 53.6692 67.3793 53.0371 66.8668 52.5417C66.5422 52.2171 66.1493 51.9609 65.7393 51.7901C65.5343 51.7046 65.3293 51.6363 65.1072 51.6021C64.8851 51.568 64.6801 51.5338 64.458 51.5338C64.253 51.5338 64.0651 51.5509 63.8601 51.5851C63.621 51.6192 63.3818 51.6876 63.1597 51.773C62.7668 51.9609 62.3739 52.2171 62.0493 52.5417C61.5368 53.0371 61.2293 53.6692 61.1097 54.3013C60.9047 55.3776 61.2122 56.5392 62.0493 57.3763C62.203 57.5471 62.391 57.6838 62.5789 57.8205Z" fill="white"/>
<path d="M64.2017 62.0399L60.785 58.6233C60.6142 58.4524 60.4434 58.3158 60.2554 58.1791C59.8796 57.9399 59.4525 57.7691 59.0254 57.7008C58.8034 57.6495 58.5984 57.6324 58.3763 57.6324C57.505 57.6324 56.6338 57.9741 55.9675 58.6404L50.2617 64.3462C49.5613 65.0466 49.2025 66.0204 49.2709 66.977C49.2709 67.2845 49.3392 67.6091 49.4588 67.9166L51.2867 72.9562L45.0854 79.1574L47.4942 81.5833L54.7375 74.3399V70.5474L56.9584 72.6145V81.3783H60.375V71.1283L56.7534 67.5066L60.785 63.4749L61.9979 64.6879C64.2017 66.8404 67.0717 68.1729 70.5909 68.1729L70.3517 64.6366C67.7892 64.6024 65.7392 63.5774 64.2017 62.0399Z" fill="white"/>
</g>
<defs>
<clipPath id="clip0_38_6202">
<rect width="132" height="80" rx="4" fill="white"/>
</clipPath>
</defs>
</svg>
