<svg width="132" height="80" viewBox="0 0 132 80" fill="none" xmlns="http://www.w3.org/2000/svg">
<g clip-path="url(#clip0_38_5168)">
<rect width="132" height="80" rx="4" fill="#7DDAB3"/>
<path d="M52.8332 49.75V48.6396C52.8332 48.0588 53.1065 47.5121 53.5336 47.2559C56.4207 45.5305 59.7178 44.625 63.0832 44.625C63.1344 44.625 63.1686 44.625 63.2198 44.6421C63.3907 43.4463 63.7323 42.3017 64.2278 41.2596C63.8519 41.2255 63.4761 41.2084 63.0832 41.2084C58.949 41.2084 55.0882 42.353 51.7911 44.3175C50.2878 45.2059 49.4165 46.88 49.4165 48.6396V53.1667H65.2357C64.5182 52.1417 63.9544 50.98 63.5786 49.75H52.8332Z" fill="white"/>
<path d="M63.0833 39.5C66.8588 39.5 69.9167 36.4421 69.9167 32.6667C69.9167 28.8913 66.8588 25.8334 63.0833 25.8334C59.3079 25.8334 56.25 28.8913 56.25 32.6667C56.25 36.4421 59.3079 39.5 63.0833 39.5ZM63.0833 29.25C64.9625 29.25 66.5 30.7875 66.5 32.6667C66.5 34.5459 64.9625 36.0834 63.0833 36.0834C61.2042 36.0834 59.6667 34.5459 59.6667 32.6667C59.6667 30.7875 61.2042 29.25 63.0833 29.25Z" fill="white"/>
<path d="M81.448 46.3334C81.448 45.9576 81.3968 45.6159 81.3455 45.2572L83.293 43.5317L81.5847 40.5763L79.1076 41.4134C78.5609 40.9522 77.9459 40.5934 77.2626 40.3372L76.7501 37.7917H73.3334L72.8209 40.3372C72.1376 40.5934 71.5226 40.9522 70.9759 41.4134L68.4989 40.5763L66.7905 43.5317L68.738 45.2572C68.6868 45.6159 68.6355 45.9576 68.6355 46.3334C68.6355 46.7092 68.6868 47.0509 68.738 47.4097L66.7905 49.1351L68.4989 52.0905L70.9759 51.2534C71.5226 51.7147 72.1376 52.0734 72.8209 52.3297L73.3334 54.8751H76.7501L77.2626 52.3297C77.9459 52.0734 78.5609 51.7147 79.1076 51.2534L81.5847 52.0905L83.293 49.1351L81.3455 47.4097C81.3968 47.0509 81.448 46.7092 81.448 46.3334ZM75.0418 49.7501C73.1626 49.7501 71.6251 48.2126 71.6251 46.3334C71.6251 44.4542 73.1626 42.9167 75.0418 42.9167C76.9209 42.9167 78.4584 44.4542 78.4584 46.3334C78.4584 48.2126 76.9209 49.7501 75.0418 49.7501Z" fill="white"/>
<path d="M111 29.5C112.925 29.5 114.5 31.075 114.5 33C114.5 34.925 112.925 36.5 111 36.5C109.075 36.5 107.5 34.925 107.5 33C107.5 31.075 109.075 29.5 111 29.5ZM111 45.25C115.725 45.25 121.15 47.5075 121.5 48.75V50.5H100.5V48.7675C100.85 47.5075 106.275 45.25 111 45.25V45.25ZM111 26C107.132 26 104 29.1325 104 33C104 36.8675 107.132 40 111 40C114.868 40 118 36.8675 118 33C118 29.1325 114.868 26 111 26V26ZM111 41.75C106.327 41.75 97 44.095 97 48.75V54H125V48.75C125 44.095 115.673 41.75 111 41.75V41.75Z" fill="white" fill-opacity="0.4"/>
<path d="M22 30.5C23.925 30.5 25.5 32.075 25.5 34C25.5 35.925 23.925 37.5 22 37.5C20.075 37.5 18.5 35.925 18.5 34C18.5 32.075 20.075 30.5 22 30.5ZM22 46.25C26.725 46.25 32.15 48.5075 32.5 49.75V51.5H11.5V49.7675C11.85 48.5075 17.275 46.25 22 46.25V46.25ZM22 27C18.1325 27 15 30.1325 15 34C15 37.8675 18.1325 41 22 41C25.8675 41 29 37.8675 29 34C29 30.1325 25.8675 27 22 27V27ZM22 42.75C17.3275 42.75 8 45.095 8 49.75V55H36V49.75C36 45.095 26.6725 42.75 22 42.75V42.75Z" fill="white" fill-opacity="0.4"/>
<path d="M22 -5.5C23.925 -5.5 25.5 -3.925 25.5 -2C25.5 -0.075 23.925 1.5 22 1.5C20.075 1.5 18.5 -0.075 18.5 -2C18.5 -3.925 20.075 -5.5 22 -5.5ZM22 10.25C26.725 10.25 32.15 12.5075 32.5 13.75V15.5H11.5V13.7675C11.85 12.5075 17.275 10.25 22 10.25V10.25ZM22 -9C18.1325 -9 15 -5.8675 15 -2C15 1.8675 18.1325 5 22 5C25.8675 5 29 1.8675 29 -2C29 -5.8675 25.8675 -9 22 -9V-9ZM22 6.75C17.3275 6.75 8 9.095 8 13.75V19H36V13.75C36 9.095 26.6725 6.75 22 6.75V6.75Z" fill="white" fill-opacity="0.4"/>
<path d="M22 63.5C23.925 63.5 25.5 65.075 25.5 67C25.5 68.925 23.925 70.5 22 70.5C20.075 70.5 18.5 68.925 18.5 67C18.5 65.075 20.075 63.5 22 63.5ZM22 79.25C26.725 79.25 32.15 81.5075 32.5 82.75V84.5H11.5V82.7675C11.85 81.5075 17.275 79.25 22 79.25V79.25ZM22 60C18.1325 60 15 63.1325 15 67C15 70.8675 18.1325 74 22 74C25.8675 74 29 70.8675 29 67C29 63.1325 25.8675 60 22 60V60ZM22 75.75C17.3275 75.75 8 78.095 8 82.75V88H36V82.75C36 78.095 26.6725 75.75 22 75.75V75.75Z" fill="white" fill-opacity="0.4"/>
<path d="M111 63.5C112.925 63.5 114.5 65.075 114.5 67C114.5 68.925 112.925 70.5 111 70.5C109.075 70.5 107.5 68.925 107.5 67C107.5 65.075 109.075 63.5 111 63.5ZM111 79.25C115.725 79.25 121.15 81.5075 121.5 82.75V84.5H100.5V82.7675C100.85 81.5075 106.275 79.25 111 79.25V79.25ZM111 60C107.132 60 104 63.1325 104 67C104 70.8675 107.132 74 111 74C114.868 74 118 70.8675 118 67C118 63.1325 114.868 60 111 60V60ZM111 75.75C106.327 75.75 97 78.095 97 82.75V88H125V82.75C125 78.095 115.673 75.75 111 75.75V75.75Z" fill="white" fill-opacity="0.4"/>
<path d="M111 -5.5C112.925 -5.5 114.5 -3.925 114.5 -2C114.5 -0.075 112.925 1.5 111 1.5C109.075 1.5 107.5 -0.075 107.5 -2C107.5 -3.925 109.075 -5.5 111 -5.5ZM111 10.25C115.725 10.25 121.15 12.5075 121.5 13.75V15.5H100.5V13.7675C100.85 12.5075 106.275 10.25 111 10.25V10.25ZM111 -9C107.132 -9 104 -5.8675 104 -2C104 1.8675 107.132 5 111 5C114.868 5 118 1.8675 118 -2C118 -5.8675 114.868 -9 111 -9V-9ZM111 6.75C106.327 6.75 97 9.095 97 13.75V19H125V13.75C125 9.095 115.673 6.75 111 6.75V6.75Z" fill="white" fill-opacity="0.4"/>
<path d="M66 -5.5C67.925 -5.5 69.5 -3.925 69.5 -2C69.5 -0.075 67.925 1.5 66 1.5C64.075 1.5 62.5 -0.075 62.5 -2C62.5 -3.925 64.075 -5.5 66 -5.5ZM66 10.25C70.725 10.25 76.15 12.5075 76.5 13.75V15.5H55.5V13.7675C55.85 12.5075 61.275 10.25 66 10.25V10.25ZM66 -9C62.1325 -9 59 -5.8675 59 -2C59 1.8675 62.1325 5 66 5C69.8675 5 73 1.8675 73 -2C73 -5.8675 69.8675 -9 66 -9V-9ZM66 6.75C61.3275 6.75 52 9.095 52 13.75V19H80V13.75C80 9.095 70.6725 6.75 66 6.75V6.75Z" fill="white" fill-opacity="0.4"/>
<path d="M66 63.5C67.925 63.5 69.5 65.075 69.5 67C69.5 68.925 67.925 70.5 66 70.5C64.075 70.5 62.5 68.925 62.5 67C62.5 65.075 64.075 63.5 66 63.5ZM66 79.25C70.725 79.25 76.15 81.5075 76.5 82.75V84.5H55.5V82.7675C55.85 81.5075 61.275 79.25 66 79.25V79.25ZM66 60C62.1325 60 59 63.1325 59 67C59 70.8675 62.1325 74 66 74C69.8675 74 73 70.8675 73 67C73 63.1325 69.8675 60 66 60V60ZM66 75.75C61.3275 75.75 52 78.095 52 82.75V88H80V82.75C80 78.095 70.6725 75.75 66 75.75V75.75Z" fill="white" fill-opacity="0.4"/>
</g>
<defs>
<clipPath id="clip0_38_5168">
<rect width="132" height="80" rx="4" fill="white"/>
</clipPath>
</defs>
</svg>
