<svg width="132" height="80" viewBox="0 0 132 80" fill="none" xmlns="http://www.w3.org/2000/svg">
<rect width="132" height="80" rx="4" fill="#FE9FD8"/>
<path d="M65.5002 24.5625C58.2085 24.5625 51.9814 29.0979 49.4585 35.5C51.9814 41.9021 58.2085 46.4375 65.5002 46.4375C72.7918 46.4375 79.0189 41.9021 81.5418 35.5C79.0189 29.0979 72.7918 24.5625 65.5002 24.5625ZM65.5002 42.7917C61.4752 42.7917 58.2085 39.525 58.2085 35.5C58.2085 31.475 61.4752 28.2083 65.5002 28.2083C69.5252 28.2083 72.7918 31.475 72.7918 35.5C72.7918 39.525 69.5252 42.7917 65.5002 42.7917ZM65.5002 31.125C63.0793 31.125 61.1252 33.0792 61.1252 35.5C61.1252 37.9208 63.0793 39.875 65.5002 39.875C67.921 39.875 69.8752 37.9208 69.8752 35.5C69.8752 33.0792 67.921 31.125 65.5002 31.125Z" fill="white"/>
<path d="M45.6044 52.7273H44.3509L42.5433 53.8885V55.0959L44.2443 54.0092H44.2869V60H45.6044V52.7273ZM47.451 60H52.4368V58.8991H49.2692V58.8494L50.5227 57.5746C51.9361 56.218 52.3267 55.5575 52.3267 54.7372C52.3267 53.5192 51.3359 52.6278 49.8729 52.6278C48.4311 52.6278 47.4084 53.5227 47.4084 54.9041H48.6619C48.6619 54.1619 49.1307 53.6967 49.8551 53.6967C50.5476 53.6967 51.0625 54.1193 51.0625 54.8047C51.0625 55.4119 50.6932 55.8452 49.9759 56.5732L47.451 59.0483V60ZM53.6761 60H54.9616V58.1676L55.4304 57.6669L57.0994 60H58.6371L56.3999 56.8999L58.5128 54.5455H57.0107L55.0504 56.7365H54.9616V52.7273H53.6761V60ZM66.7221 54.5455H65.3549L64.0978 58.5973H64.041L62.7875 54.5455H61.4167L63.3592 60H64.7797L66.7221 54.5455ZM67.6117 60H68.8972V54.5455H67.6117V60ZM68.258 53.7713C68.6664 53.7713 69.0002 53.4588 69.0002 53.0753C69.0002 52.6882 68.6664 52.3757 68.258 52.3757C67.8461 52.3757 67.5123 52.6882 67.5123 53.0753C67.5123 53.4588 67.8461 53.7713 68.258 53.7713ZM72.6339 60.1065C73.9052 60.1065 74.7788 59.4851 75.006 58.5369L73.8058 58.402C73.6317 58.8636 73.2056 59.1051 72.6516 59.1051C71.8207 59.1051 71.2702 58.5582 71.2596 57.6243H75.0593V57.2301C75.0593 55.3161 73.9087 54.4744 72.5664 54.4744C71.0039 54.4744 69.9847 55.6214 69.9847 57.3047C69.9847 59.0163 70.9897 60.1065 72.6339 60.1065ZM71.2631 56.7578C71.3022 56.0618 71.8171 55.4759 72.5842 55.4759C73.3228 55.4759 73.82 56.0156 73.8271 56.7578H71.2631ZM77.2433 60H78.5856L79.6083 56.3139H79.6829L80.7056 60H82.0444L83.5891 54.5455H82.2752L81.3306 58.3594H81.2773L80.2972 54.5455H79.0011L78.021 58.3807H77.9712L77.0124 54.5455H75.7021L77.2433 60ZM88.7978 55.9872C88.6202 55.0639 87.8816 54.4744 86.6032 54.4744C85.2892 54.4744 84.3944 55.1207 84.3979 56.1293C84.3944 56.9247 84.8844 57.4503 85.932 57.6669L86.8624 57.8622C87.3631 57.9723 87.5975 58.1747 87.5975 58.4837C87.5975 58.8565 87.1926 59.1371 86.5819 59.1371C85.9924 59.1371 85.6088 58.8814 85.4988 58.3913L84.2452 58.5121C84.405 59.5135 85.2466 60.1065 86.5854 60.1065C87.949 60.1065 88.9114 59.3999 88.915 58.3665C88.9114 57.5888 88.4107 57.1129 87.3809 56.8892L86.4505 56.6903C85.8965 56.5661 85.6763 56.3743 85.6799 56.0582C85.6763 55.6889 86.0847 55.4332 86.6209 55.4332C87.214 55.4332 87.5265 55.7564 87.6259 56.1151L88.7978 55.9872Z" fill="white"/>
<path d="M10 72.7462L27.5486 66.4789L16.2674 55.1976L10 72.7462Z" fill="white" fill-opacity="0.2"/>
<path d="M25.7061 60.8759L32.713 53.869C33.3272 53.2548 34.3175 53.2548 34.9317 53.869L35.6712 54.6086L36.9999 53.2799L36.2603 52.5403C34.9191 51.1991 32.7256 51.1991 31.3843 52.5403L24.3774 59.5472L25.7061 60.8759Z" fill="white" fill-opacity="0.2"/>
<path d="M20.1033 53.7938L19.3638 54.5333L20.6924 55.862L21.432 55.1224C22.7732 53.7812 22.7732 51.5877 21.432 50.2464L20.6924 49.5069L19.3638 50.8481L20.1033 51.5877C20.705 52.1893 20.705 53.1921 20.1033 53.7938Z" fill="white" fill-opacity="0.2"/>
<path d="M28.8773 60.0611L26.8843 62.0542L28.213 63.3828L30.206 61.3898C30.8202 60.7756 31.8104 60.7756 32.4246 61.3898L34.4427 63.4079L35.7714 62.0792L33.7533 60.0611C32.3995 58.7199 30.2185 58.7199 28.8773 60.0611Z" fill="white" fill-opacity="0.2"/>
<path d="M26.3706 52.5403L21.8706 57.0403L23.1993 58.369L27.6992 53.869C29.0405 52.5278 29.0405 50.3342 27.6992 48.993L25.7062 47L24.3775 48.3287L26.3706 50.3217C26.9722 50.9359 26.9722 51.9387 26.3706 52.5403Z" fill="white" fill-opacity="0.2"/>
<path d="M11 37.7462L28.5486 31.4789L17.2674 20.1976L11 37.7462Z" fill="white" fill-opacity="0.2"/>
<path d="M26.7061 25.8759L33.713 18.869C34.3272 18.2548 35.3175 18.2548 35.9317 18.869L36.6712 19.6086L37.9999 18.2799L37.2603 17.5403C35.9191 16.1991 33.7256 16.1991 32.3843 17.5403L25.3774 24.5472L26.7061 25.8759Z" fill="white" fill-opacity="0.2"/>
<path d="M21.1033 18.7938L20.3638 19.5333L21.6924 20.862L22.432 20.1224C23.7732 18.7812 23.7732 16.5877 22.432 15.2464L21.6924 14.5069L20.3638 15.8481L21.1033 16.5877C21.705 17.1893 21.705 18.1921 21.1033 18.7938Z" fill="white" fill-opacity="0.2"/>
<path d="M29.8773 25.0611L27.8843 27.0542L29.213 28.3828L31.206 26.3898C31.8202 25.7756 32.8104 25.7756 33.4246 26.3898L35.4427 28.4079L36.7714 27.0792L34.7533 25.0611C33.3995 23.7199 31.2185 23.7199 29.8773 25.0611Z" fill="white" fill-opacity="0.2"/>
<path d="M27.3706 17.5403L22.8706 22.0403L24.1993 23.369L28.6992 18.869C30.0405 17.5278 30.0405 15.3342 28.6992 13.993L26.7062 12L25.3775 13.3287L27.3706 15.3217C27.9722 15.9359 27.9722 16.9387 27.3706 17.5403Z" fill="white" fill-opacity="0.2"/>
<path d="M48 25.7462L65.5486 19.4789L54.2674 8.19763L48 25.7462Z" fill="white" fill-opacity="0.2"/>
<path d="M63.7061 13.8759L70.713 6.86901C71.3272 6.25481 72.3175 6.25481 72.9317 6.86901L73.6712 7.60856L74.9999 6.27988L74.2603 5.54033C72.9191 4.19912 70.7256 4.19912 69.3843 5.54033L62.3774 12.5472L63.7061 13.8759Z" fill="white" fill-opacity="0.2"/>
<path d="M58.1033 6.79377L57.3638 7.53331L58.6924 8.86199L59.432 8.12244C60.7732 6.78123 60.7732 4.58766 59.432 3.24644L58.6924 2.5069L57.3638 3.84811L58.1033 4.58766C58.705 5.18932 58.705 6.1921 58.1033 6.79377Z" fill="white" fill-opacity="0.2"/>
<path d="M66.8773 13.0611L64.8843 15.0542L66.213 16.3828L68.206 14.3898C68.8202 13.7756 69.8104 13.7756 70.4246 14.3898L72.4427 16.4079L73.7714 15.0792L71.7533 13.0611C70.3995 11.7199 68.2185 11.7199 66.8773 13.0611Z" fill="white" fill-opacity="0.2"/>
<path d="M64.3706 5.54034L59.8706 10.0403L61.1993 11.369L65.6992 6.86902C67.0405 5.5278 67.0405 3.33423 65.6992 1.99302L63.7062 0L62.3775 1.32868L64.3706 3.3217C64.9722 3.9359 64.9722 4.93867 64.3706 5.54034Z" fill="white" fill-opacity="0.2"/>
<path d="M91 34.7462L108.549 28.4789L97.2674 17.1976L91 34.7462Z" fill="white" fill-opacity="0.2"/>
<path d="M106.706 22.8759L113.713 15.869C114.327 15.2548 115.317 15.2548 115.932 15.869L116.671 16.6086L118 15.2799L117.26 14.5403C115.919 13.1991 113.726 13.1991 112.384 14.5403L105.377 21.5472L106.706 22.8759Z" fill="white" fill-opacity="0.2"/>
<path d="M101.103 15.7938L100.364 16.5333L101.692 17.862L102.432 17.1224C103.773 15.7812 103.773 13.5877 102.432 12.2464L101.692 11.5069L100.364 12.8481L101.103 13.5877C101.705 14.1893 101.705 15.1921 101.103 15.7938Z" fill="white" fill-opacity="0.2"/>
<path d="M109.877 22.0611L107.884 24.0542L109.213 25.3828L111.206 23.3898C111.82 22.7756 112.81 22.7756 113.425 23.3898L115.443 25.4079L116.771 24.0792L114.753 22.0611C113.4 20.7199 111.219 20.7199 109.877 22.0611Z" fill="white" fill-opacity="0.2"/>
<path d="M107.371 14.5403L102.871 19.0403L104.199 20.369L108.699 15.869C110.04 14.5278 110.04 12.3342 108.699 10.993L106.706 9L105.378 10.3287L107.371 12.3217C107.972 12.9359 107.972 13.9387 107.371 14.5403Z" fill="white" fill-opacity="0.2"/>
<path d="M105 69.7462L122.549 63.4789L111.267 52.1976L105 69.7462Z" fill="white" fill-opacity="0.2"/>
<path d="M120.706 57.8759L127.713 50.869C128.327 50.2548 129.317 50.2548 129.932 50.869L130.671 51.6086L132 50.2799L131.26 49.5403C129.919 48.1991 127.726 48.1991 126.384 49.5403L119.377 56.5472L120.706 57.8759Z" fill="white" fill-opacity="0.2"/>
<path d="M115.103 50.7938L114.364 51.5333L115.692 52.862L116.432 52.1224C117.773 50.7812 117.773 48.5877 116.432 47.2464L115.692 46.5069L114.364 47.8481L115.103 48.5877C115.705 49.1893 115.705 50.1921 115.103 50.7938Z" fill="white" fill-opacity="0.2"/>
<path d="M123.877 57.0611L121.884 59.0542L123.213 60.3828L125.206 58.3898C125.82 57.7756 126.81 57.7756 127.425 58.3898L129.443 60.4079L130.771 59.0792L128.753 57.0611C127.4 55.7199 125.219 55.7199 123.877 57.0611Z" fill="white" fill-opacity="0.2"/>
<path d="M121.371 49.5403L116.871 54.0403L118.199 55.369L122.699 50.869C124.04 49.5278 124.04 47.3342 122.699 45.993L120.706 44L119.378 45.3287L121.371 47.3217C121.972 47.9359 121.972 48.9387 121.371 49.5403Z" fill="white" fill-opacity="0.2"/>
<path d="M64 71.7462L81.5486 65.4789L70.2674 54.1976L64 71.7462Z" fill="white" fill-opacity="0.2"/>
<path d="M79.7061 59.8759L86.713 52.869C87.3272 52.2548 88.3175 52.2548 88.9317 52.869L89.6712 53.6086L90.9999 52.2799L90.2603 51.5403C88.9191 50.1991 86.7256 50.1991 85.3843 51.5403L78.3774 58.5472L79.7061 59.8759Z" fill="white" fill-opacity="0.2"/>
<path d="M74.1033 52.7938L73.3638 53.5333L74.6924 54.862L75.432 54.1224C76.7732 52.7812 76.7732 50.5877 75.432 49.2464L74.6924 48.5069L73.3638 49.8481L74.1033 50.5877C74.705 51.1893 74.705 52.1921 74.1033 52.7938Z" fill="white" fill-opacity="0.2"/>
<path d="M82.8773 59.0611L80.8843 61.0542L82.213 62.3828L84.206 60.3898C84.8202 59.7756 85.8104 59.7756 86.4246 60.3898L88.4427 62.4079L89.7714 61.0792L87.7533 59.0611C86.3995 57.7199 84.2185 57.7199 82.8773 59.0611Z" fill="white" fill-opacity="0.2"/>
<path d="M80.3706 51.5403L75.8706 56.0403L77.1993 57.369L81.6992 52.869C83.0405 51.5278 83.0405 49.3342 81.6992 47.993L79.7062 46L78.3775 47.3287L80.3706 49.3217C80.9722 49.9359 80.9722 50.9387 80.3706 51.5403Z" fill="white" fill-opacity="0.2"/>
</svg>
