<svg width="132" height="80" viewBox="0 0 132 80" fill="none" xmlns="http://www.w3.org/2000/svg">
<g clip-path="url(#clip0_38_6234)">
<rect width="132" height="80" rx="4" fill="#FB779F"/>
<path d="M-18.5 55.5L0 85.5L30.1668 52.5L10.0002 17.6666L-18.5 55.5ZM11.8335 47H8.16682V43.3333H11.8335V47ZM11.8335 39.6666H8.16682V32.3333H11.8335V39.6666Z" fill="#FC90B0"/>
<path d="M-2.25 81.75H73V69.2273L39 10.5L-2.25 81.75ZM42.75 70.5H35.25V63H42.75V70.5ZM42.75 55.5H35.25V40.5H42.75V55.5Z" fill="#FCA0BC"/>
<path d="M103.167 48.8333H71.8333V52.7499H103.167V48.8333ZM105.125 68.4166V64.4999L103.167 54.7083H71.8333L69.875 64.4999V68.4166H71.8333V80.1666H91.4167V68.4166H99.25V80.1666H103.167V68.4166H105.125ZM87.5 76.2499H75.75V68.4166H87.5V76.2499Z" fill="#FDB9CD"/>
<path d="M111.5 63.5C112.6 63.5 113.5 62.6 113.5 61.5C113.5 60.4 112.6 59.5 111.5 59.5C110.4 59.5 109.5 60.4 109.5 61.5C109.5 62.6 110.4 63.5 111.5 63.5ZM101 70C98.2 70 96 72.2 96 75C96 77.8 98.2 80 101 80C103.8 80 106 77.8 106 75C106 72.2 103.8 70 101 70ZM101 78.5C99.1 78.5 97.5 76.9 97.5 75C97.5 73.1 99.1 71.5 101 71.5C102.9 71.5 104.5 73.1 104.5 75C104.5 76.9 102.9 78.5 101 78.5ZM106.8 68.5L109.2 66.1L110 66.9C111.3 68.2 113 69 115.1 69V67C113.6 67 112.4 66.4 111.5 65.5L109.6 63.6C109.1 63.2 108.6 63 108 63C107.4 63 106.9 63.2 106.6 63.6L103.8 66.4C103.4 66.8 103.2 67.3 103.2 67.8C103.2 68.4 103.4 68.9 103.8 69.2L107 72V77H109V70.8L106.8 68.5ZM115 70C112.2 70 110 72.2 110 75C110 77.8 112.2 80 115 80C117.8 80 120 77.8 120 75C120 72.2 117.8 70 115 70ZM115 78.5C113.1 78.5 111.5 76.9 111.5 75C111.5 73.1 113.1 71.5 115 71.5C116.9 71.5 118.5 73.1 118.5 75C118.5 76.9 116.9 78.5 115 78.5Z" fill="white"/>
<path d="M62.5 63.5C63.6 63.5 64.5 62.6 64.5 61.5C64.5 60.4 63.6 59.5 62.5 59.5C61.4 59.5 60.5 60.4 60.5 61.5C60.5 62.6 61.4 63.5 62.5 63.5ZM52 70C49.2 70 47 72.2 47 75C47 77.8 49.2 80 52 80C54.8 80 57 77.8 57 75C57 72.2 54.8 70 52 70ZM52 78.5C50.1 78.5 48.5 76.9 48.5 75C48.5 73.1 50.1 71.5 52 71.5C53.9 71.5 55.5 73.1 55.5 75C55.5 76.9 53.9 78.5 52 78.5ZM57.8 68.5L60.2 66.1L61 66.9C62.3 68.2 64 69 66.1 69V67C64.6 67 63.4 66.4 62.5 65.5L60.6 63.6C60.1 63.2 59.6 63 59 63C58.4 63 57.9 63.2 57.6 63.6L54.8 66.4C54.4 66.8 54.2 67.3 54.2 67.8C54.2 68.4 54.4 68.9 54.8 69.2L58 72V77H60V70.8L57.8 68.5ZM66 70C63.2 70 61 72.2 61 75C61 77.8 63.2 80 66 80C68.8 80 71 77.8 71 75C71 72.2 68.8 70 66 70ZM66 78.5C64.1 78.5 62.5 76.9 62.5 75C62.5 73.1 64.1 71.5 66 71.5C67.9 71.5 69.5 73.1 69.5 75C69.5 76.9 67.9 78.5 66 78.5Z" fill="white"/>
<path d="M33.5 63.5C34.6 63.5 35.5 62.6 35.5 61.5C35.5 60.4 34.6 59.5 33.5 59.5C32.4 59.5 31.5 60.4 31.5 61.5C31.5 62.6 32.4 63.5 33.5 63.5ZM23 70C20.2 70 18 72.2 18 75C18 77.8 20.2 80 23 80C25.8 80 28 77.8 28 75C28 72.2 25.8 70 23 70ZM23 78.5C21.1 78.5 19.5 76.9 19.5 75C19.5 73.1 21.1 71.5 23 71.5C24.9 71.5 26.5 73.1 26.5 75C26.5 76.9 24.9 78.5 23 78.5ZM28.8 68.5L31.2 66.1L32 66.9C33.3 68.2 35 69 37.1 69V67C35.6 67 34.4 66.4 33.5 65.5L31.6 63.6C31.1 63.2 30.6 63 30 63C29.4 63 28.9 63.2 28.6 63.6L25.8 66.4C25.4 66.8 25.2 67.3 25.2 67.8C25.2 68.4 25.4 68.9 25.8 69.2L29 72V77H31V70.8L28.8 68.5ZM37 70C34.2 70 32 72.2 32 75C32 77.8 34.2 80 37 80C39.8 80 42 77.8 42 75C42 72.2 39.8 70 37 70ZM37 78.5C35.1 78.5 33.5 76.9 33.5 75C33.5 73.1 35.1 71.5 37 71.5C38.9 71.5 40.5 73.1 40.5 75C40.5 76.9 38.9 78.5 37 78.5Z" fill="white"/>
<path d="M5.5 63.5C6.6 63.5 7.5 62.6 7.5 61.5C7.5 60.4 6.6 59.5 5.5 59.5C4.4 59.5 3.5 60.4 3.5 61.5C3.5 62.6 4.4 63.5 5.5 63.5ZM-5 70C-7.8 70 -10 72.2 -10 75C-10 77.8 -7.8 80 -5 80C-2.2 80 0 77.8 0 75C0 72.2 -2.2 70 -5 70ZM-5 78.5C-6.9 78.5 -8.5 76.9 -8.5 75C-8.5 73.1 -6.9 71.5 -5 71.5C-3.1 71.5 -1.5 73.1 -1.5 75C-1.5 76.9 -3.1 78.5 -5 78.5ZM0.8 68.5L3.2 66.1L4 66.9C5.3 68.2 7 69 9.1 69V67C7.6 67 6.4 66.4 5.5 65.5L3.6 63.6C3.1 63.2 2.6 63 2 63C1.4 63 0.9 63.2 0.6 63.6L-2.2 66.4C-2.6 66.8 -2.8 67.3 -2.8 67.8C-2.8 68.4 -2.6 68.9 -2.2 69.2L1 72V77H3V70.8L0.8 68.5ZM9 70C6.2 70 4 72.2 4 75C4 77.8 6.2 80 9 80C11.8 80 14 77.8 14 75C14 72.2 11.8 70 9 70ZM9 78.5C7.1 78.5 5.5 76.9 5.5 75C5.5 73.1 7.1 71.5 9 71.5C10.9 71.5 12.5 73.1 12.5 75C12.5 76.9 10.9 78.5 9 78.5Z" fill="white"/>
</g>
<defs>
<clipPath id="clip0_38_6234">
<rect width="132" height="80" rx="4" fill="white"/>
</clipPath>
</defs>
</svg>
