<svg width="132" height="80" viewBox="0 0 132 80" fill="none" xmlns="http://www.w3.org/2000/svg">
<g clip-path="url(#clip0_38_6218)">
<rect width="132" height="80" rx="4" fill="#FB779F"/>
<path d="M34.3748 58.875C35.7498 58.875 36.8748 57.75 36.8748 56.375C36.8748 55 35.7498 53.875 34.3748 53.875C32.9998 53.875 31.8748 55 31.8748 56.375C31.8748 57.75 32.9998 58.875 34.3748 58.875ZM39.3748 65.475C37.8373 65.0125 36.5998 64.0125 35.8748 62.75L34.6248 60.75C34.1123 59.9375 33.2372 59.5 32.3247 59.5C31.3497 59.5 30.3373 60.125 30.0998 61.3C29.8623 62.475 26.2498 80.75 26.2498 80.75H28.8748L31.1247 70.75L33.7498 73.25V80.75H36.2498V71.375L33.6248 68.875L34.3748 65.125C35.6248 66.5625 37.3873 67.6375 39.3748 68.05V80.75H41.2498V63.25H39.3748V65.475ZM26.7873 68.4125L24.1373 67.9C23.4623 67.7625 23.0123 67.1125 23.1498 66.4375L24.0998 61.525C24.3623 60.175 25.6748 59.2875 27.0248 59.55L28.4747 59.8375L26.7873 68.4125Z" fill="white"/>
<g clip-path="url(#clip1_38_6218)">
<path d="M98.458 56.6251H152.541L125.5 9.91675L98.458 56.6251ZM127.958 49.2501H123.041V44.3334H127.958V49.2501ZM127.958 39.4167H123.041V29.5834H127.958V39.4167Z" fill="white" fill-opacity="0.3"/>
</g>
<path d="M56.0415 79.875H144.958L100.5 3.08337L56.0415 79.875ZM104.542 67.75H96.4582V59.6667H104.542V67.75ZM104.542 51.5834H96.4582V35.4167H104.542V51.5834Z" fill="#FDC9D9"/>
</g>
<defs>
<clipPath id="clip0_38_6218">
<rect width="132" height="80" rx="4" fill="white"/>
</clipPath>
<clipPath id="clip1_38_6218">
<rect width="48" height="59" fill="white" transform="translate(107 5)"/>
</clipPath>
</defs>
</svg>
