<svg width="132" height="80" viewBox="0 0 132 80" fill="none" xmlns="http://www.w3.org/2000/svg">
<g clip-path="url(#clip0_38_6170)">
<rect width="132" height="80" rx="4" fill="#7DDAB3"/>
<path d="M91.3335 27L96.7502 15.0833L108.667 9.66665L96.7502 4.24998L91.3335 -7.66669L85.9168 4.24998L74.0002 9.66665L85.9168 15.0833L91.3335 27ZM58.8335 29.1666L48.0002 5.33331L37.1668 29.1666L13.3335 40L37.1668 50.8333L48.0002 74.6666L58.8335 50.8333L82.6668 40L58.8335 29.1666ZM91.3335 53L85.9168 64.9166L74.0002 70.3333L85.9168 75.75L91.3335 87.6666L96.7502 75.75L108.667 70.3333L96.7502 64.9166L91.3335 53Z" fill="white" fill-opacity="0.1"/>
<path d="M56.9387 32.0613L53.6249 30.5625L56.9387 29.0637L58.4374 25.75L59.9362 29.0637L63.2499 30.5625L59.9362 32.0613L58.4374 35.375L56.9387 32.0613ZM62.2599 40.49L61.1874 38.125L60.1149 40.49L57.7499 41.5625L60.1149 42.635L61.1874 45L62.2599 42.635L64.6249 41.5625L62.2599 40.49ZM55.3299 42.7587L57.9974 44.78L54.5599 50.7338L51.4799 49.4412C51.2049 49.62 50.9024 49.7988 50.5999 49.95L50.1874 53.25H43.3124L42.8999 49.9363C42.5974 49.785 42.3087 49.62 42.0199 49.4275L38.9399 50.72L35.5024 44.7662L38.1699 42.745C38.1562 42.5937 38.1562 42.415 38.1562 42.25C38.1562 42.085 38.1562 41.9063 38.1699 41.7413L35.5024 39.72L38.9399 33.7662L42.0199 35.0588C42.2949 34.88 42.5974 34.7012 42.8999 34.55L43.3124 31.25H50.1874L50.5999 34.5637C50.9024 34.715 51.1912 34.88 51.4799 35.0725L54.5599 33.78L57.9974 39.7338L55.3299 41.755C55.3437 41.92 55.3437 42.085 55.3437 42.2638C55.3437 42.4425 55.3437 42.5937 55.3299 42.7587ZM50.8749 42.25C50.8749 39.9675 49.0324 38.125 46.7499 38.125C44.4674 38.125 42.6249 39.9675 42.6249 42.25C42.6249 44.5325 44.4674 46.375 46.7499 46.375C49.0324 46.375 50.8749 44.5325 50.8749 42.25Z" fill="white"/>
<path d="M102 26H92C89.24 26 87 28.24 87 31C87 33.76 89.24 36 92 36H102C104.76 36 107 33.76 107 31C107 28.24 104.76 26 102 26ZM92 34C90.34 34 89 32.66 89 31C89 29.34 90.34 28 92 28C93.66 28 95 29.34 95 31C95 32.66 93.66 34 92 34Z" fill="white" fill-opacity="0.6"/>
<path d="M92 46H102C104.76 46 107 48.24 107 51C107 53.76 104.76 56 102 56H92C89.24 56 87 53.76 87 51C87 48.24 89.24 46 92 46ZM102 54C103.66 54 105 52.66 105 51C105 49.34 103.66 48 102 48C100.34 48 99 49.34 99 51C99 52.66 100.34 54 102 54Z" fill="white" fill-opacity="0.6"/>
<path d="M73 75V72C73 70.9 72.1 70 71 70H63C61.9 70 61 70.9 61 72V75H60V81L63 87V90H71V87L74 81V75H73ZM63 72H71V75H69V73H68V75H66V73H65V75H63V72Z" fill="white"/>
</g>
<defs>
<clipPath id="clip0_38_6170">
<rect width="132" height="80" rx="4" fill="white"/>
</clipPath>
</defs>
</svg>
