<svg width="132" height="80" viewBox="0 0 132 80" fill="none" xmlns="http://www.w3.org/2000/svg">
<rect width="132" height="80" rx="4" fill="#FE9FD8"/>
<path d="M58.7407 25.4041C53.4707 31.32 49.854 39.8191 49.5182 40.62L40.1665 36.6158L50.629 26.1533C51.8432 24.9391 53.5998 24.3966 55.3048 24.7325L58.7407 25.4041ZM63.8557 52.9166C63.8557 52.9166 73.5173 48.9125 79.0715 43.3583C93.0215 29.4083 90.6965 18.5066 89.9473 16.0525C87.4932 15.2775 76.5915 12.9783 62.6415 26.9283C57.0873 32.4825 53.0832 42.1441 53.0832 42.1441L63.8557 52.9166ZM80.5957 47.2591C74.6798 52.5291 66.1807 56.1458 65.3798 56.4816L69.384 65.8333L79.8465 55.3708C81.0607 54.1566 81.6032 52.4 81.2673 50.695L80.5957 47.2591ZM58.2498 55.5C58.2498 57.6441 57.3715 59.5816 55.9765 60.9766C52.9282 64.025 40.1665 65.8333 40.1665 65.8333C40.1665 65.8333 41.9748 53.0716 45.0232 50.0233C46.4182 48.6283 48.3557 47.75 50.4998 47.75C54.7882 47.75 58.2498 51.2116 58.2498 55.5ZM68.5832 32.25C68.5832 29.4083 70.9082 27.0833 73.7498 27.0833C76.5915 27.0833 78.9165 29.4083 78.9165 32.25C78.9165 35.0916 76.5915 37.4166 73.7498 37.4166C70.9082 37.4166 68.5832 35.0916 68.5832 32.25Z" fill="white" fill-opacity="0.2"/>
<path d="M52.9276 44.3693H54.4886V41.7095H57.1484V40.1484H54.4886V37.4886H52.9276V40.1484H50.2678V41.7095H52.9276V44.3693ZM63.4661 35.8182H61.7111L59.1806 37.4439V39.1342L61.562 37.6129H61.6216V46H63.4661V35.8182ZM69.8148 46.1939C72.2708 46.1989 73.7374 44.2599 73.7374 40.919C73.7374 37.598 72.2608 35.679 69.8148 35.679C67.3688 35.679 65.8972 37.593 65.8922 40.919C65.8922 44.255 67.3588 46.1939 69.8148 46.1939ZM69.8148 44.6378C68.5471 44.6378 67.7516 43.3651 67.7566 40.919C67.7615 38.4929 68.552 37.2152 69.8148 37.2152C71.0826 37.2152 71.873 38.4929 71.878 40.919C71.878 43.3651 71.0875 44.6378 69.8148 44.6378ZM75.4091 46H77.2088V43.4347L77.8651 42.7337L80.2017 46H82.3544L79.2223 41.6598L82.1804 38.3636H80.0774L77.3331 41.4311H77.2088V35.8182H75.4091V46Z" fill="white"/>
</svg>
